<?xml version="1.0" encoding="utf-8"?>
<!-- Generator: Adobe Illustrator 15.0.0, SVG Export Plug-In . SVG Version: 6.00 Build 0)  -->
<!DOCTYPE svg PUBLIC "-//W3C//DTD SVG 1.1//EN" "http://www.w3.org/Graphics/SVG/1.1/DTD/svg11.dtd">
<svg version="1.1" id="Layer_1" xmlns="http://www.w3.org/2000/svg" xmlns:xlink="http://www.w3.org/1999/xlink" x="0px" y="0px"
	 width="244.352px" height="170.42px" viewBox="0 0 244.352 170.42" enable-background="new 0 0 244.352 170.42"
	 xml:space="preserve">
<g>
	<path fill="none" stroke="#FB4275" stroke-width="0.443" stroke-miterlimit="10" d="M203.599,134.242H51.14
		c-2.018,0-3.652-1.636-3.652-3.652V36.558c0-2.017,1.634-3.652,3.652-3.652h152.459c2.018,0,3.651,1.635,3.651,3.652v94.032
		C207.25,132.606,205.616,134.242,203.599,134.242z"/>
	<path fill="#F9DEE6" d="M212.422,126.584H59.963c-2.017,0-3.651-1.635-3.651-3.652V28.9c0-2.017,1.635-3.651,3.651-3.651h152.459
		c2.018,0,3.652,1.634,3.652,3.651v94.032C216.074,124.949,214.439,126.584,212.422,126.584"/>
	<path fill="#FB4275" d="M70.979,31.425c0,1.116-0.905,2.021-2.021,2.021c-1.117,0-2.022-0.905-2.022-2.021
		c0-1.116,0.905-2.021,2.022-2.021C70.073,29.404,70.979,30.309,70.979,31.425"/>
	<path fill="#333333" d="M77.701,31.425c0,1.116-0.905,2.021-2.021,2.021c-1.117,0-2.021-0.905-2.021-2.021
		c0-1.116,0.904-2.021,2.021-2.021C76.796,29.404,77.701,30.309,77.701,31.425"/>
	<circle fill="none" stroke="#D5B2B2" stroke-width="0.303" stroke-miterlimit="10" cx="82.403" cy="31.425" r="2.021"/>
	<path fill="none" stroke="#D5B2B2" stroke-width="0.457" stroke-miterlimit="10" d="M191.351,113.298h-48.393
		c-0.977,0-1.768-0.792-1.768-1.77V84.681c0-0.976,0.791-1.768,1.768-1.768h48.393c0.978,0,1.77,0.792,1.77,1.768v26.848
		C193.12,112.506,192.328,113.298,191.351,113.298z"/>
	<path fill="none" stroke="#FB4275" stroke-width="0.457" stroke-miterlimit="10" d="M122.221,112.298H70.828
		c-0.977,0-1.769-0.792-1.769-1.77v-61.64c0-0.977,0.792-1.768,1.769-1.768h51.393c0.978,0,1.77,0.791,1.77,1.767v61.641
		C123.99,111.506,123.198,112.298,122.221,112.298z"/>
	<path fill="none" stroke="#FFFFFF" stroke-width="0.433" stroke-miterlimit="10" d="M109.668,87.562H80.106
		c-0.855,0-1.549-0.694-1.549-1.549V58.233c0-0.856,0.693-1.55,1.549-1.55h29.562c0.855,0,1.55,0.694,1.55,1.55v27.779
		C111.218,86.867,110.523,87.562,109.668,87.562z"/>
	<line fill="none" stroke="#FFFFFF" stroke-width="0.433" stroke-miterlimit="10" x1="78.557" y1="93.54" x2="110.379" y2="93.54"/>
	
		<line fill="none" stroke="#FFFFFF" stroke-width="0.433" stroke-miterlimit="10" x1="78.557" y1="98.863" x2="94.887" y2="98.863"/>
	
		<line fill="none" stroke="#FFFFFF" stroke-width="0.433" stroke-miterlimit="10" x1="78.557" y1="104.187" x2="102.347" y2="104.187"/>
	<path fill="none" stroke="#FFFFFF" stroke-width="0.433" stroke-miterlimit="10" d="M177.996,73.751h-33.903
		c-0.945,0-1.712-0.766-1.712-1.711V38.349c0-0.946,0.767-1.712,1.712-1.712h33.903c0.945,0,1.712,0.766,1.712,1.712V72.04
		C179.708,72.985,178.941,73.751,177.996,73.751z"/>
	<path fill="none" stroke="#FFFFFF" stroke-width="0.433" stroke-miterlimit="10" d="M171.798,62.761h-22.109
		c-0.952,0-1.723-0.771-1.723-1.722c0-0.95,0.771-1.721,1.723-1.721h22.109c0.951,0,1.723,0.771,1.723,1.721
		C173.521,61.99,172.749,62.761,171.798,62.761z"/>
	<path fill="none" stroke="#FFFFFF" stroke-width="0.433" stroke-miterlimit="10" d="M171.798,51.427h-22.109
		c-0.952,0-1.723-0.771-1.723-1.722s0.771-1.722,1.723-1.722h22.109c0.951,0,1.723,0.771,1.723,1.722S172.749,51.427,171.798,51.427
		z"/>
	<path fill="#3C6BE0" d="M157.439,49.705c0,1.599-1.296,2.895-2.896,2.895c-1.599,0-2.896-1.296-2.896-2.895
		c0-1.599,1.297-2.896,2.896-2.896C156.144,46.809,157.439,48.106,157.439,49.705"/>
	<path fill="none" stroke="#FB4275" stroke-width="0.443" stroke-miterlimit="10" d="M22.652,34.31H11.344
		c-0.579,0-1.049,0.476-1.049,1.063v6.36c0,0.588,0.47,1.064,1.049,1.064h4.608l3.874,4.322v-4.165l2.847-0.058
		c0.571-0.011,1.028-0.484,1.028-1.063v-6.46C23.701,34.786,23.231,34.31,22.652,34.31z"/>
	<ellipse fill="none" stroke="#FB4275" stroke-width="0.49" stroke-miterlimit="10" cx="3.406" cy="123.386" rx="3.16" ry="3.205"/>
	
		<ellipse fill="none" stroke="#FB4275" stroke-width="0.49" stroke-miterlimit="10" cx="241.805" cy="85.816" rx="2.302" ry="2.335"/>
	
		<rect x="131.012" y="0.245" fill="none" stroke="#FB4275" stroke-width="0.49" stroke-miterlimit="10" width="4.778" height="4.847"/>
	<path fill="#3C6BE0" d="M165.842,93.245h14.186V78.932c0-1.039-0.844-1.881-1.883-1.881h-12.303c-1.039,0-1.882,0.842-1.882,1.881
		v12.432C163.96,92.403,164.803,93.245,165.842,93.245"/>
	<polygon fill="#3C6BE0" points="180.026,90.633 180.026,96.279 175.223,90.633 	"/>
	<path fill="#FDFDFD" d="M170.835,87.949c1.362,0.023,2.741,0.042,3.993-0.045c0.398-0.027,0.739-0.657,0.258-0.856
		c0.203-0.104,0.408-0.204,0.497-0.432c0.083-0.214-0.018-0.506-0.241-0.562c0.473,0.117,0.658-0.632,0.29-0.875
		c0.195-0.166,0.357-0.385,0.398-0.638s-0.063-0.538-0.287-0.661c-0.147-0.08-0.323-0.083-0.491-0.084
		c-0.565-0.005-1.133-0.009-1.699-0.013c0.153-0.887,0.199-1.853-0.251-2.631c-0.136-0.234-0.5-0.515-0.789-0.335
		c-0.271,0.169-0.196,0.59-0.183,0.855c0.057,1.102-0.571,2.211-1.545,2.731C170.785,84.403,170.851,86.751,170.835,87.949"/>
	<rect x="168.283" y="84.403" fill="#FDFDFD" width="2.059" height="3.543"/>
	<path fill="#73C994" d="M85.847,64.899H67.214c-2.107,0-3.815-1.708-3.815-3.816V42.248c0-1.645,1.333-2.978,2.978-2.978h19.471
		c1.646,0,2.979,1.333,2.979,2.978v19.673C88.825,63.566,87.492,64.899,85.847,64.899"/>
	<polyline fill="none" stroke="#FFFFFF" stroke-width="0.478" stroke-miterlimit="10" points="66.897,56.652 73.861,51.083 
		76.4,53.9 83.387,48.604 	"/>
	<polyline fill="none" stroke="#FFFFFF" stroke-width="0.478" stroke-miterlimit="10" points="82.063,48.173 83.584,48.527 
		83.367,50.004 	"/>
	<path fill="#FB4275" d="M230.533,58.783h-40.874c-1.234,0-2.237-1.001-2.237-2.237V16.256c0-1.235,1.003-2.236,2.237-2.236h40.874
		c1.235,0,2.236,1.001,2.236,2.236v40.289C232.77,57.782,231.769,58.783,230.533,58.783"/>
	
		<line fill="none" stroke="#FFFFFF" stroke-width="0.433" stroke-miterlimit="10" x1="201.997" y1="40.14" x2="212.039" y2="40.14"/>
	
		<line fill="none" stroke="#FFFFFF" stroke-width="0.433" stroke-miterlimit="10" x1="195.58" y1="44.863" x2="224.514" y2="44.863"/>
	
		<line fill="none" stroke="#FFFFFF" stroke-width="0.433" stroke-miterlimit="10" x1="195.58" y1="50.295" x2="204.284" y2="50.295"/>
	
		<line fill="none" stroke="#FFFFFF" stroke-width="0.433" stroke-miterlimit="10" x1="206.506" y1="50.295" x2="212.668" y2="50.295"/>
	<line fill="none" stroke="#FFFFFF" stroke-width="0.433" stroke-miterlimit="10" x1="195.58" y1="40.14" x2="199.477" y2="40.14"/>
	<path fill="none" stroke="#FFFFFF" stroke-width="0.433" stroke-miterlimit="10" d="M207.065,23.816v6.195
		c0,0.5,0.54,0.812,0.975,0.562l5.363-3.097c0.434-0.25,0.434-0.874,0-1.124l-5.363-3.098
		C207.605,23.004,207.065,23.316,207.065,23.816z"/>
	<circle fill="none" stroke="#FFFFFF" stroke-width="0.393" stroke-miterlimit="10" cx="209.587" cy="26.914" r="8.377"/>
	<path d="M208.984,145.783h-17.259c-1.005,0-1.82-0.815-1.82-1.82c0-1.006,0.815-1.821,1.82-1.821h17.259
		c1.005,0,1.82,0.815,1.82,1.821C210.805,144.968,209.989,145.783,208.984,145.783"/>
	<rect x="197.568" y="166.405" fill="#1F2326" width="23.156" height="2.104"/>
	<path fill="#1F2326" d="M199.544,168.087c0.183,1.092-0.557,2.124-1.648,2.306c-1.093,0.18-2.124-0.558-2.306-1.649
		c-0.181-1.093,0.559-2.124,1.649-2.306C198.331,166.257,199.363,166.995,199.544,168.087"/>
	<rect x="208.013" y="144.586" fill="#1F2326" width="2.266" height="23.085"/>
	<path fill="#1F2326" d="M222.7,168.087c0.182,1.092-0.557,2.124-1.647,2.306c-1.094,0.18-2.124-0.558-2.307-1.649
		c-0.181-1.093,0.559-2.124,1.649-2.306C221.487,166.257,222.52,166.995,222.7,168.087"/>
	<path fill="#1F2326" d="M220.858,145.783h-20.366c-1.389,0-2.388-1.359-1.993-2.716l9.725-33.525
		c0.261-0.9,1.072-1.517,1.994-1.517h20.367c1.389,0,2.387,1.36,1.994,2.715l-9.726,33.524
		C222.592,145.166,221.78,145.783,220.858,145.783"/>
	<path fill="#E3A6A9" d="M218.056,145.783h-17.739c-1.39,0-2.388-1.359-1.993-2.716l9.725-33.525c0.261-0.9,1.072-1.517,1.994-1.517
		h17.741c1.388,0,2.387,1.36,1.993,2.715l-9.726,33.524C219.79,145.166,218.978,145.783,218.056,145.783"/>
	<path fill="#1F2326" d="M220.854,145.783h-21.557c-1.005,0-1.82-0.815-1.82-1.82c0-1.006,0.815-1.821,1.82-1.821h21.557
		c1.005,0,1.82,0.815,1.82,1.821C222.674,144.968,221.858,145.783,220.854,145.783"/>
	
		<rect x="187.7" y="153.368" transform="matrix(0.866 -0.5 0.5 0.866 -53.0729 116.3354)" fill="#E1A4A7" width="5.66" height="7.654"/>
	<path fill="#262127" d="M194.438,158.302l-6.217,3.589l-3.293,4.79c-0.722,1.121-0.758,2.553-0.091,3.708l12.435-7.179
		L194.438,158.302z"/>
	<path fill="#262127" d="M187.848,162.416l0.307-2.704c0,0,1.959-1.663,3.141,0.828L187.848,162.416z"/>
	<path fill="#747F99" d="M184.655,125.86c0,0-14.969-0.758-13.685,4.964c1.285,5.722,11.014,29.041,11.014,29.041l12.522-3.227
		l-9.474-17.623l18.348-6.892L184.655,125.86z"/>
	<rect x="181.035" y="157.983" fill="#E1A4A7" width="5.661" height="7.651"/>
	<path fill="#262127" d="M186.696,164.721h-7.18l-5.246,2.502c-1.187,0.61-1.932,1.832-1.932,3.166h14.357V164.721z"/>
	<path fill="#262127" d="M178.932,164.989l1.616-2.188c0,0,2.529-0.462,2.308,2.287L178.932,164.989z"/>
	<path fill="#747F99" d="M198.812,129.7l-17.523,0.27c-1.514,0.022-2.919,0.875-3.551,2.251c-0.494,1.079-0.86,2.668-0.794,5.001
		c0.187,6.492,2.097,22.62,2.097,22.62h10.52l-1.415-17.048l19.3-0.239c3.961-0.048,7.666-2.254,9.341-5.844
		c0.697-1.498,1.058-3.198,0.653-4.99L198.812,129.7z"/>
	<path fill="#D7A99F" d="M180.514,125.813c0.004,1.829-1.235,2.104-3.065,2.108c-1.83,0.005-3.557-0.266-3.561-2.096
		c-0.004-1.829,1.478-3.315,3.308-3.32C179.024,122.501,180.511,123.982,180.514,125.813"/>
	<path fill="#D7A99F" d="M182.841,127.682l-3.829,0.008c-1,0.002-1.819-0.814-1.821-1.814s0.813-1.82,1.814-1.822l3.828-0.008
		c1.001-0.002,1.82,0.814,1.822,1.815C184.658,126.86,183.841,127.681,182.841,127.682"/>
	<path fill="#B22F57" d="M182.693,128.07l-1.276-6.268l14.77-3.455l2.864-16.192c0.316-1.672,2.291-3.443,3.963-3.126
		c1.671,0.317,3.207,2.26,2.89,3.932l-1.844,21.104c-0.224,1.187-1.123,2.133-2.297,2.419L182.693,128.07z"/>
	<path fill="#FB4275" d="M215.456,98.82c3.92,0.172,5.637,4.235,5.759,6.951l-3.776,25.949c-16.311-0.141-18.627-2.02-18.627-2.02
		v-26.15c0.198-2.517,1.353-4.885,4.221-5.124l5.86-0.544L215.456,98.82z"/>
	<path fill="#E1A4A7" d="M204,98.337l4.201-0.638l4.672,0.752c0,0-0.403,3.892-6.28,3.203c-0.885-0.103-1.736-0.426-2.34-0.974
		C203.656,100.14,203.508,99.401,204,98.337"/>
	<polygon fill="#B22F57" points="203.135,121.728 211.765,118.78 212.756,110.208 213.338,120.112 	"/>
	<path fill="#B22F57" d="M218.14,126.904c-0.059-0.004-0.428,2.938-0.428,2.938s-17.841,1.604-20.44-0.174L218.14,126.904z"/>
	<path fill="#D7A99F" d="M196.178,127.864c0.125,1.825-1.094,2.184-2.919,2.309s-3.565-0.03-3.69-1.855s1.253-3.406,3.077-3.532
		C194.471,124.66,196.053,126.038,196.178,127.864"/>
	<path fill="#D7A99F" d="M198.624,129.575l-3.819,0.262c-0.998,0.068-1.87-0.691-1.939-1.689c-0.068-0.998,0.692-1.87,1.69-1.939
		l3.819-0.262c0.997-0.068,1.87,0.69,1.938,1.689C200.382,128.634,199.621,129.507,198.624,129.575"/>
	<path fill="#FB4275" d="M198.502,129.973l-1.689-7.104l16.525-2.757l-0.825-14.045c-0.669-3.118,2.207-5.843,4.424-5.481
		c2.119-0.032,3.867,1.608,4.278,4.789l1.143,19.18c-0.146,1.199-0.979,2.203-2.131,2.565L198.502,129.973z"/>
	<path fill="#0B0006" d="M168.82,108.779l18.718,1.765c0.615,0.059,1.106,0.538,1.179,1.152l1.964,16.867
		c0.097,0.826-0.594,1.532-1.423,1.455l-19.029-1.794c-0.625-0.059-1.12-0.552-1.18-1.176l-1.654-16.838
		C167.313,109.392,168.002,108.702,168.82,108.779"/>
	<path fill="#2C3336" d="M167.743,108.678l18.717,1.765c0.616,0.058,1.107,0.538,1.18,1.152l1.963,16.867
		c0.097,0.827-0.593,1.533-1.423,1.455l-19.029-1.794c-0.625-0.059-1.119-0.552-1.18-1.176l-1.654-16.838
		C166.235,109.29,166.923,108.601,167.743,108.678"/>
	<path fill="#0B0006" d="M190.161,128.68l12.79,1.206c0.391,0.037,0.676,0.383,0.64,0.772s-0.384,0.676-0.773,0.64l-13.561-1.229
		L190.161,128.68z"/>
	<path fill="#FFFFFF" d="M178.471,118.909c-0.105,1.127-1.104,1.953-2.23,1.848c-1.127-0.106-1.955-1.105-1.849-2.231
		c0.106-1.127,1.105-1.954,2.231-1.848C177.75,116.784,178.576,117.783,178.471,118.909"/>
	<path fill="#0B0006" d="M201.746,74.912c1.943-0.093,3.613,1.301,3.908,3.18c0.45-0.332,0.999-0.54,1.599-0.569
		c1.615-0.077,2.951,0.628,3.342,2.235c9.297-1.012,0.578,12.663,0.578,12.663l-0.706-5.268l-0.258-5.906
		c-0.334,1.178-1.386,2.065-2.676,2.127c-1.354,0.065-2.535-0.803-2.928-2.038c-0.642,0.648-1.516,1.07-2.497,1.117
		c-2.083,0.099-3.852-1.508-3.951-3.59S199.664,75.011,201.746,74.912"/>
	<path fill="#E1A4A7" d="M211.71,88.291l-0.195,10.105c-0.034,1.793-1.452,3.252-3.243,3.338c-1.921,0.093-3.539-1.422-3.573-3.345
		l-0.148-8.485L211.71,88.291z"/>
	<path fill="#0B0006" d="M211.014,90.626c0,0,0,6.629-6.343,5.828l-0.053-3.053L211.014,90.626z"/>
	<path fill="#E1A4A7" d="M205.82,94.876l0.214,0.001c3.168,0.002,5.738-2.565,5.741-5.734l0.004-6.478
		c0.001-0.82-0.664-1.485-1.483-1.486l-7.552-0.005c-1.465-0.001-2.652,1.186-2.653,2.651l-0.004,5.31
		C200.085,92.304,202.651,94.874,205.82,94.876"/>
	<path fill="#0B0006" d="M205.779,87.299c0.021,0.258,0.244,0.451,0.502,0.431s0.451-0.245,0.433-0.503
		c-0.021-0.258-0.246-0.45-0.504-0.431C205.952,86.816,205.759,87.041,205.779,87.299"/>
	<path fill="#0B0006" d="M201.127,87.304c0.021,0.258,0.245,0.451,0.503,0.431s0.45-0.245,0.432-0.502
		c-0.021-0.258-0.246-0.451-0.503-0.431C201.301,86.821,201.107,87.046,201.127,87.304"/>
	
		<path fill="none" stroke="#AF7079" stroke-width="0.402" stroke-linecap="round" stroke-linejoin="round" stroke-miterlimit="10" d="
		M202.981,87.736l-0.155,1.121c0,0,0.083,0.707,1.091,0.43"/>
	<path fill="#0B0006" d="M207.479,85.479c-0.028,0.004-0.058,0.006-0.087,0.005l-2.119-0.079c-0.235-0.009-0.42-0.207-0.412-0.444
		c0.01-0.236,0.207-0.42,0.444-0.412l2.119,0.079c0.236,0.009,0.421,0.207,0.412,0.444C207.83,85.278,207.676,85.445,207.479,85.479
		"/>
	<path fill="#0B0006" d="M202.008,85.408c-0.027,0.004-0.058,0.006-0.087,0.005l-1.295-0.048c-0.237-0.009-0.421-0.207-0.413-0.444
		c0.009-0.237,0.208-0.421,0.444-0.412l1.295,0.048c0.238,0.009,0.422,0.207,0.413,0.444
		C202.358,85.208,202.204,85.375,202.008,85.408"/>
	
		<path fill="none" stroke="#AF7079" stroke-width="0.402" stroke-linecap="round" stroke-linejoin="round" stroke-miterlimit="10" d="
		M202.22,90.612c0,0,1.46,0.856,3.299,0.068"/>
	<path fill="#0B0006" d="M211.624,88.112c0,0-3.289-0.748-2.665-5.742l-8.331-0.144l0.201-2.031l9.24,0.125
		c1.319,0.018,2.337,1.162,2.204,2.473L211.624,88.112z"/>
	<path fill="#E1A4A7" d="M210.467,87.951c-0.001,1.019,0.824,1.846,1.844,1.846c1.019,0.001,1.846-0.825,1.846-1.844
		c0.001-1.019-0.824-1.845-1.844-1.846C211.294,86.105,210.467,86.932,210.467,87.951"/>
	<path fill="#1C1927" d="M136.564,54.001c-1.89,1.89-4.639,2.205-6.14,0.704c-1.501-1.501-1.186-4.25,0.704-6.14
		s4.639-2.206,6.141-0.704C138.771,49.362,138.456,52.111,136.564,54.001"/>
	<path fill="#DF7246" d="M133.36,54.721c0,1.63-1.321,2.952-2.952,2.952c-1.63,0-2.952-1.322-2.952-2.952
		c0-1.63,1.322-2.952,2.952-2.952C132.039,51.769,133.36,53.091,133.36,54.721"/>
	<path fill="#1C1927" d="M117.623,59.569c0.173,4.349,4.249,8.18,8.599,8.008c4.348-0.173,8.055-4.187,7.882-8.536
		c-0.171-4.348-3.777-8.216-8.714-7.351C121.103,52.441,117.45,55.221,117.623,59.569"/>
	<path fill="#966150" d="M129.254,71.883l-0.353-9.376l-5.786,0.255l0.352,9.377c0.071,1.598,1.424,2.836,3.021,2.765
		C128.086,74.833,129.324,73.48,129.254,71.883"/>
	<path fill="#1C1927" d="M129.126,62.929c0,0-0.334,6.938-5.687,7.04l-0.146-3.462L129.126,62.929z"/>
	<path fill="#966150" d="M124.402,68.74L124.402,68.74c-3.1,0.124-5.71-1.646-5.833-4.746l-0.212-5.33
		c-0.091-2.288,2.313-4.797,3.66-4.851l5.029,1.197c1.348-0.054,2.497,1.006,2.55,2.355l0.211,5.311
		C129.931,65.774,127.017,68.636,124.402,68.74"/>
	<path fill="#262127" d="M123.747,61.373c0.027,0.245,0.248,0.422,0.493,0.395c0.245-0.028,0.422-0.249,0.395-0.494
		s-0.247-0.422-0.492-0.394C123.896,60.907,123.721,61.128,123.747,61.373"/>
	<path fill="#262127" d="M119.66,61.502c0.027,0.245,0.248,0.421,0.493,0.394c0.245-0.027,0.422-0.248,0.395-0.494
		c-0.027-0.244-0.247-0.421-0.492-0.394C119.81,61.036,119.634,61.257,119.66,61.502"/>
	
		<path fill="none" stroke="#7C473D" stroke-width="0.399" stroke-linecap="round" stroke-linejoin="round" stroke-miterlimit="10" d="
		M121.429,62.091l-0.068,1.284c0,0,0.102,0.672,1.052,0.374"/>
	<path fill="#262127" d="M125.341,59.973c-0.026,0.005-0.055,0.008-0.083,0.008l-2.021-0.006c-0.227,0-0.409-0.184-0.408-0.41
		c0-0.225,0.183-0.407,0.41-0.407l2.021,0.005c0.228,0.001,0.408,0.185,0.408,0.41C125.667,59.771,125.528,59.935,125.341,59.973"/>
	<path fill="#262127" d="M120.47,60.056c-0.026,0.006-0.055,0.008-0.083,0.008l-1.235-0.003c-0.227-0.001-0.409-0.184-0.409-0.41
		c0.001-0.226,0.185-0.408,0.411-0.408l1.235,0.003c0.228,0.001,0.408,0.185,0.408,0.411
		C120.796,59.854,120.656,60.018,120.47,60.056"/>
	<path fill="#FFFFFF" d="M120.634,64.748h3.615c0,0-0.338,1.37-2.178,1.231C120.815,65.884,120.634,64.748,120.634,64.748"/>
	<path fill="#1C1927" d="M127.065,58.159c0,0,0.068,3.441,2.021,3.728l1.322-3.847L127.065,58.159z"/>
	<path fill="#966150" d="M132.256,61.761c0.044,1.115-0.823,2.055-1.938,2.099c-1.115,0.044-2.055-0.824-2.1-1.938
		c-0.044-1.115,0.824-2.055,1.938-2.099C131.272,59.779,132.212,60.646,132.256,61.761"/>
	<path fill="#1C1927" d="M127.05,51.555c0,0-10.518-0.667-10.42,6.984h14.449l-1.953-5.201L127.05,51.555z"/>
	<polygon fill="#966150" points="130.683,165.732 126.226,165.732 127.256,150.211 132.714,150.211 	"/>
	<path fill="#262127" d="M125.942,164.747h7.336l5.155,2.458c1.165,0.6,1.899,1.8,1.899,3.109l-14.689-0.173L125.942,164.747z"/>
	<path fill="#262127" d="M133.853,165.011l-1.587-2.15c0,0-2.483-0.454-2.267,2.247L133.853,165.011z"/>
	<path fill="#262127" d="M133.84,91.568c0,0,8.743,6.209,5.115,26.913l-5.115,34.978h-7.645l0.442-55.33l-0.442-6.561H133.84z"/>
	<polygon fill="#966150" points="103.948,165.732 108.406,165.732 112.863,150.211 107.406,150.211 	"/>
	<path fill="#262127" d="M108.688,164.747h-7.336l-5.154,2.458c-1.166,0.6-1.899,1.8-1.899,3.109l14.688-0.173L108.688,164.747z"/>
	<path fill="#262127" d="M100.778,165.011l1.587-2.15c0,0,2.484-0.454,2.268,2.247L100.778,165.011z"/>
	<path fill="#262127" d="M119.891,91.63c0,0-3.885,3.529-6.74,19.04c-2.855,15.511-8.104,42.228-8.104,42.228l7.301,0.562
		l15.733-48.225l1.055-13.604H119.891z"/>
	<polygon fill="#171618" points="126.543,109.943 122.828,104.57 121.359,125.057 	"/>
	<path fill="#966150" d="M108.767,83.063c0.268,0.009,0.827-0.068,1.089-0.119l15.674-3.32c2.23-0.332,5.492-3.603,4.544-5.649
		c-0.697-1.502-2.38-2.277-3.974-1.83l-16.028,5.418L108.767,83.063z"/>
	<path fill="#966150" d="M110.765,77.881l-13.919-9.493l-1.938,2.464l11.472,11.364c2,1.747,5.782,0.644,6.621-1.876
		C113.581,78.595,112.406,78.714,110.765,77.881"/>
	<path fill="#966150" d="M96.801,69.442c-0.675,1.604-2.522,2.358-4.128,1.683c-1.604-0.676-2.357-2.524-1.683-4.129
		c0.676-1.604,2.524-2.358,4.129-1.682C96.724,65.989,97.477,67.838,96.801,69.442"/>
	<path fill="#966150" d="M94.965,65.254l-2.743-2.03c-0.22-0.187-0.559-0.166-0.748,0.046c-0.164,0.184-0.16,0.453,0.008,0.635
		l2.535,2.67L94.965,65.254z"/>
	<path fill="#EAC140" d="M120.604,72.726c-3.069,0.684-7.313,2.501-7.313,2.501l4.747,6.457l1.627-0.413L120.604,72.726z"/>
	<path fill="#DBAF37" d="M117.692,81.298c0,0-0.472-2.441,0-5.382l-2.436,1.986L117.692,81.298z"/>
	<path fill="#966150" d="M147.168,93.383l1.415-2.59l-7.13-11.861c-0.919-1.588-5.138-4.487-6.4-3.157
		c-0.927,0.978-0.964,3.992-0.147,5.064l8.747,11.67L147.168,93.383z"/>
	<path fill="#966150" d="M143.787,93.104l4.132,16.507l3.144-0.334l-1.978-16.928c-0.032-1.927-2.018-3.197-3.78-2.422
		C144.081,90.464,143.437,91.815,143.787,93.104"/>
	<path fill="#EAC140" d="M132.663,72.452c0,0,5.25,0.729,8.687,5.09l-7.502,7.032c0,0-4.841-4.441-1.61-8.658L132.663,72.452z"/>
	<path fill="#966150" d="M147.357,109.15c1.348-1.061,3.299-0.828,4.359,0.519c1.062,1.348,0.829,3.299-0.519,4.36
		c-1.347,1.06-3.299,0.828-4.359-0.52C145.777,112.163,146.01,110.211,147.357,109.15"/>
	<path fill="#EAC140" d="M126.421,71.418c0,0-3.477-0.256-8.648,2.685c0,0-1.039,8.744,1.723,11.98l0.396,5.547l13.949-0.062
		c0,0,0.772-9.898,3.642-12.399l-0.956-4.926C136.525,74.243,132.275,71.314,126.421,71.418"/>
	<path fill="#966150" d="M120.595,72.754c0,0,5.208-2.866,12.068-0.302l-2.33,1.462C127.359,75.779,123.242,75.059,120.595,72.754"
		/>
	<path fill="#DBAF37" d="M135.368,83.148l-0.455,0.426c0,0-1.897-1.287-3.14-3.242l2.213,9.803L135.368,83.148z"/>
	<path fill="#E1A4A7" d="M48.391,107.587c0,0,3.282,4.142,1.568,9.154c-1.714,5.013-6.465-0.361-6.465-0.361L48.391,107.587z"/>
	<path fill="#FB4275" d="M48.875,71.083c0,0-0.378-1.579-3.876-3.076l2.466,19.4l0.236-1.175l-1.889,24.364l5.541-0.325
		C52.523,80.871,48.875,71.083,48.875,71.083"/>
	<path fill="#FB4275" d="M38.208,65.757c0,0-5.997,0.245-10.451,2.965l-0.916,32.102h21.062V72.451c0-1.744-0.471-3.211-1.1-3.525
		C45.391,68.222,41.65,66.089,38.208,65.757"/>
	<polygon fill="#A82950" points="27.318,84.111 30.338,79.913 30.338,88.507 27.318,87.906 	"/>
	<path fill="#FB4275" d="M26.949,97.047c-0.001,0.058,5.624,0,5.624,0v-1.295h1.22c0,0,5.891,1.32,7.875-4.017l-4.781-1.107
		l-9.771,2.232L26.949,97.047z"/>
	<path fill="#FB4275" d="M34.541,74.167c0,0-5.605,7.445-11.512,16.118c-0.662,0.972-2.257,1.478-3.433,1.448
		c-2.654-0.067-3.828-2.904-2.867-5.247c0,0,6.804-14.34,11.028-17.764C27.903,68.604,34.541,74.167,34.541,74.167"/>
	<path fill="#0D0D0D" d="M40.886,84.121l-5.069,6.636c-0.5,0.654-0.138,1.605,0.67,1.761l4.092,0.792
		c0.411,0.079,0.832-0.08,1.088-0.411l5.114-6.628c0.503-0.653,0.143-1.608-0.667-1.765l-4.137-0.8
		C41.564,83.625,41.142,83.787,40.886,84.121"/>
	<polygon fill="#E1A4A7" points="33.793,90.536 27.279,90.628 25.964,93.686 33.278,93.323 	"/>
	<path fill="#E1A4A7" d="M33.793,90.536l4.284-3.026c0.217-0.153,0.511-0.135,0.708,0.045c0.22,0.202,0.245,0.542,0.056,0.774
		l-0.936,1.151l3.229,0.346c0.416,0.053,0.657,0.5,0.471,0.876l-0.489,0.99c-0.434,0.879-1.243,1.514-2.203,1.72
		c-1.662,0.357-4.147,0.811-5.635-0.089L33.793,90.536z"/>
	<path fill="#FB4275" d="M17.159,85.599c0,0-2.482,4.154-0.762,6.512c1.734,2.378,9.239,3.711,15.616,3.108l0.264-6.326
		l-7.466-1.486L17.159,85.599z"/>
	<path fill="#E1A4A7" d="M35.413,56.113l-0.667,10.08c-0.118,1.789,1.17,3.363,2.947,3.601c1.905,0.256,3.644-1.115,3.842-3.027
		l0.871-8.437L35.413,56.113z"/>
	<path fill="#262127" d="M35.688,59.087c0,0-1.717,7.214,5.893,7.24l0.396-3.836L35.688,59.087z"/>
	<path fill="#262127" d="M38.248,47.343c0,0-4.704,0.702-4.583,3.712c0.12,3.01,0.524,6.191,0.524,6.191l2.575-4.921L38.248,47.343z
		"/>
	<path fill="#262127" d="M46.672,50.255c0,0,3.451,4.712-1.505,6.806l-0.823-0.411c0,0-1.491-3.669,0.471-5.611L46.672,50.255z"/>
	<path fill="#E1A4A7" d="M40.289,64.635l-0.215-0.011c-3.19-0.162-5.644-2.878-5.482-6.068l0.33-6.519
		c0.042-0.826,0.745-1.461,1.571-1.419l7.6,0.385c1.474,0.075,2.609,1.331,2.534,2.805l-0.271,5.345
		C46.195,62.343,43.478,64.797,40.289,64.635"/>
	<path fill="#1F2326" d="M40.986,57.785c-0.033,0.258-0.27,0.441-0.528,0.407c-0.258-0.033-0.441-0.269-0.408-0.528
		c0.034-0.258,0.27-0.441,0.528-0.407C40.837,57.29,41.02,57.526,40.986,57.785"/>
	<path fill="#1F2326" d="M45.015,57.977c-0.033,0.259-0.27,0.441-0.528,0.408c-0.259-0.033-0.441-0.27-0.408-0.528
		c0.033-0.259,0.27-0.441,0.528-0.408C44.866,57.481,45.048,57.718,45.015,57.977"/>
	
		<path fill="none" stroke="#AF7079" stroke-width="0.394" stroke-linecap="round" stroke-linejoin="round" stroke-miterlimit="10" d="
		M42.979,58.577l0.052,1.336c0,0-0.12,0.708-1.119,0.377"/>
	<path fill="#1F2326" d="M39.328,56.277c0.028,0.006,0.057,0.01,0.087,0.01l2.136,0.03c0.238,0.003,0.434-0.187,0.438-0.426
		c0.004-0.239-0.186-0.434-0.426-0.438l-2.136-0.03c-0.239-0.003-0.434,0.187-0.438,0.426
		C38.986,56.058,39.132,56.234,39.328,56.277"/>
	<path fill="#1F2326" d="M44.186,56.436c0.028,0.006,0.057,0.009,0.087,0.01l1.306,0.018c0.238,0.004,0.434-0.187,0.438-0.425
		c0.003-0.239-0.188-0.435-0.426-0.438l-1.306-0.019c-0.239-0.003-0.434,0.187-0.438,0.426
		C43.844,56.216,43.99,56.393,44.186,56.436"/>
	
		<path fill="none" stroke="#AF7079" stroke-width="0.394" stroke-linecap="round" stroke-linejoin="round" stroke-miterlimit="10" d="
		M39.561,60.695c0,0,1.826,1.75,4.449,0.276"/>
	<path fill="#262127" d="M34.522,57.917c0,0,3.842-1.773,3.62-7.898l-3.518-0.446l-0.051,0.887L34.522,57.917z"/>
	<path fill="#E1A4A7" d="M36.137,57.345c-0.055,1.076-0.971,1.903-2.047,1.849c-1.076-0.055-1.903-0.971-1.849-2.047
		c0.055-1.075,0.971-1.903,2.047-1.849C35.364,55.353,36.191,56.269,36.137,57.345"/>
	<path fill="#262127" d="M37.237,53.28l2.204-1.117c0,0,5.056,2.603,7.288,0.497c2.41-2.273,2.283-7.174-2.154-7.946
		c-3.852-0.67-6.963,1.876-7.54,4.195C36.458,51.228,37.237,53.28,37.237,53.28"/>
	<polygon fill="#3F3F3F" points="26.841,100.824 26.897,107.815 47.879,107.815 47.903,100.824 	"/>
	<rect x="30.029" y="157.696" fill="#E1A4A7" width="5.691" height="7.693"/>
	<path fill="#262127" d="M35.72,164.471h-7.217l-5.275,2.516c-1.193,0.612-1.943,1.84-1.943,3.183H35.72V164.471z"/>
	<path fill="#262127" d="M27.915,164.74l1.625-2.2c0,0,2.541-0.464,2.319,2.3L27.915,164.74z"/>
	<polygon fill="#3F3F3F" points="38.389,103.935 36.156,159.119 27.636,159.119 26.842,103.935 	"/>
	<polygon fill="#4E4F4F" points="26.515,155.566 36.3,155.566 36.156,159.119 26.515,159.119 	"/>
	<rect x="40.76" y="157.696" fill="#E1A4A7" width="5.691" height="7.693"/>
	<path fill="#262127" d="M40.76,164.471h7.217l5.275,2.516c1.193,0.612,1.943,1.84,1.943,3.183H40.76V164.471z"/>
	<path fill="#262127" d="M48.565,164.74l-1.625-2.2c0,0-2.541-0.464-2.319,2.3L48.565,164.74z"/>
	<polygon fill="#3F3F3F" points="47.903,105.129 47.432,159.119 38.389,159.119 37.779,106.001 	"/>
	<polygon fill="#5E5F60" points="37.802,108.034 40.644,108.034 38.156,138.906 	"/>
	<polygon fill="#4E4F4F" points="48.565,155.566 38.298,155.566 38.336,159.119 48.565,159.119 	"/>
</g>
</svg>
