<?xml version="1.0" encoding="iso-8859-1"?>
<!-- Generator: Adobe Illustrator 19.0.0, SVG Export Plug-In . SVG Version: 6.00 Build 0)  -->
<svg version="1.1" id="Capa_1" xmlns="http://www.w3.org/2000/svg" xmlns:xlink="http://www.w3.org/1999/xlink" x="0px" y="0px"
	 viewBox="0 0 512.291 512.291" style="enable-background:new 0 0 512.291 512.291;" xml:space="preserve">
<path style="fill:#E2B698;" d="M296.873,326.982c-11.636,6.982-24.436,10.473-38.4,10.473h-5.818
	c-13.964,0-26.764-3.491-38.4-10.473l-37.236-24.436h-2.327v58.182l81.455,46.545l81.455-46.545v-58.182h-2.327L296.873,326.982z"/>
<path style="fill:#D8A984;" d="M310.836,290.909H175.855l-1.164,23.273l26.764,22.109c15.127,8.145,32.582,24.436,51.2,24.436h5.818
	c3.491,0,5.818,0,9.309,0c22.109-2.327,41.891,11.636,41.891,31.418l0,0l-67.491,66.327L256.145,448l81.455-57.018v-57.018v-43.055
	H310.836z"/>
<path style="fill:#D5E3EF;" d="M11.782,488.727l6.982-52.364c2.327-17.455,15.127-32.582,32.582-38.4l123.345-37.236l81.455,46.545
	l81.455-46.545l123.345,38.4c17.455,5.818,30.255,19.782,32.582,38.4l6.982,51.2C391.127,520.146,121.164,520.146,11.782,488.727z"
	/>
<path style="fill:#EFC9AE;" d="M384.145,151.273c0-70.982-57.018-128-128-128s-128,57.018-128,128h-11.636v23.273
	c0,12.8,10.473,23.273,23.273,23.273l0,0v43.055c0,24.436,12.8,46.545,32.582,59.345l43.055,26.764
	c11.636,6.982,24.436,10.473,38.4,10.473h5.818c13.964,0,26.764-3.491,38.4-10.473l43.055-26.764
	c20.945-12.8,32.582-34.909,32.582-59.345v-43.055l0,0c12.8,0,23.273-10.473,23.273-23.273v-23.273H384.145z"/>
<g>
	<circle style="fill:#595A66;" cx="209.6" cy="174.545" r="11.636"/>
	<circle style="fill:#595A66;" cx="302.691" cy="174.545" r="11.636"/>
</g>
<g>
	<circle style="fill:#B0C4D9;" cx="273.6" cy="459.636" r="5.818"/>
	<circle style="fill:#B0C4D9;" cx="273.6" cy="494.545" r="5.818"/>
</g>
<polygon style="fill:#E2B698;" points="279.418,244.364 256.145,244.364 256.145,174.545 "/>
<path style="fill:#F04D4E;" d="M128.145,128h11.636v81.455h-11.636c-12.8,0-23.273-10.473-23.273-23.273v-34.909
	C104.873,138.473,115.345,128,128.145,128z"/>
<path style="fill:#B0C4D8;" d="M302.691,453.818L302.691,453.818v-46.545h-46.545l0,0
	C263.127,429.382,280.582,446.836,302.691,453.818z"/>
<path style="fill:#70B7E5;" d="M302.691,453.818L302.691,453.818c-6.982-22.109-24.436-39.564-46.545-46.545l0,0l22.109-12.8
	c23.273-13.964,44.218-33.745,59.345-57.018l0,0l10.473,3.491c16.291,5.818,29.091,16.291,37.236,31.418l0,0L302.691,453.818z"/>
<path style="fill:#4C9CD6;" d="M348.073,340.945l-10.473-3.491c-1.164,2.327-3.491,4.655-4.655,6.982
	c3.491,1.164,5.818,3.491,8.145,4.655c12.8,9.309,15.127,27.927,3.491,39.564l-36.073,34.909
	c-8.145,8.145-9.309,18.618-5.818,29.091l0,0l81.455-81.455C377.164,357.236,363.2,345.6,348.073,340.945z"/>
<rect x="128.145" y="128" style="fill:#DE333F;" width="11.636" height="81.455"/>
<path style="fill:#E2B698;" d="M384.145,151.273c0-70.982-57.018-128-128-128c-19.782,0-37.236,4.655-53.527,11.636
	c2.327,0,4.655,0,6.982,0c54.691,0,101.236,33.745,119.855,82.618c-9.309-3.491-18.618-6.982-26.764-11.636l0,0
	c-45.382,20.945-103.564,31.418-162.909,33.745v11.636c59.345-2.327,117.527-13.964,162.909-33.745l0,0
	c4.655,2.327,9.309,4.655,13.964,6.982c11.636,5.818,19.782,16.291,20.945,29.091c0,3.491,0,5.818,0,9.309v89.6
	c0,13.964-4.655,27.927-11.636,38.4H324.8c-2.327-6.982-9.309-11.636-16.291-11.636H273.6c-9.309,0-17.455,8.145-17.455,17.455
	s8.145,17.455,17.455,17.455h26.764l-37.236,23.273c11.636-1.164,23.273-4.655,33.745-10.473l43.055-26.764
	c20.945-12.8,32.582-34.909,32.582-59.345v-43.055c12.8,0,23.273-10.473,23.273-23.273v-23.273H384.145z"/>
<path style="fill:#DA8C36;" d="M302.691,104.727C251.491,128,184,139.636,116.509,139.636V128c0-70.982,57.018-128,128-128h23.273
	c70.982,0,128,57.018,128,128l0,0c-8.145,0-15.127,0-23.273-1.164C346.909,124.509,322.473,116.364,302.691,104.727"/>
<g>
	<path style="fill:#C97629;" d="M289.891,2.327c41.891,20.945,70.982,64,70.982,114.036v8.145c3.491,1.164,8.145,1.164,11.636,2.327
		C380.655,128,387.636,128,395.782,128C395.782,65.164,350.4,12.8,289.891,2.327z"/>
	<path style="fill:#C97629;" d="M277.091,27.927L244.509,0l25.6,39.564c8.145,11.636,11.636,24.436,12.8,38.4
		c0,10.473-6.982,18.618-17.455,19.782c-6.982,0-12.8,2.327-19.782,4.655c-37.236,12.8-82.618,34.909-129.164,37.236
		c61.673,0,123.345-10.473,173.382-29.091c12.8-5.818,12.8-5.818,12.8-5.818C309.673,76.8,300.364,46.545,277.091,27.927z"/>
</g>
<path style="fill:#595A66;" d="M395.782,174.545c-6.982,0-11.636,4.655-11.636,11.636v58.182c0,19.782-15.127,34.909-34.909,34.909
	h-36.073c-2.327-6.982-9.309-11.636-16.291-11.636H273.6c-9.309,0-17.455,8.145-17.455,17.455s8.145,17.455,17.455,17.455h75.636
	c32.582,0,58.182-25.6,58.182-58.182v-58.182C407.418,179.2,402.764,174.545,395.782,174.545z"/>
<path style="fill:#494A52;" d="M401.6,244.364L401.6,244.364c-3.491,0-5.818-2.327-5.818-5.818v-52.364
	c0-3.491,2.327-5.818,5.818-5.818l0,0c3.491,0,5.818,2.327,5.818,5.818v52.364C407.418,242.036,405.091,244.364,401.6,244.364z"/>
<path style="fill:#F04D4E;" d="M384.145,209.455h-11.636V128h11.636c12.8,0,23.273,10.473,23.273,23.273v34.909
	C407.418,198.982,396.945,209.455,384.145,209.455z"/>
<rect x="372.509" y="128" style="fill:#DE333F;" width="11.636" height="81.455"/>
<path style="fill:#6F707E;" d="M320.145,279.273h23.273c3.491,0,5.818,2.327,5.818,5.818l0,0c0,3.491-2.327,5.818-5.818,5.818
	h-23.273c-3.491,0-5.818-2.327-5.818-5.818l0,0C314.327,281.6,316.655,279.273,320.145,279.273z"/>
<path style="fill:#F26A56;" d="M116.509,157.091v23.273c0,3.491-2.327,5.818-5.818,5.818l0,0c-3.491,0-5.818-2.327-5.818-5.818
	v-23.273c0-3.491,2.327-5.818,5.818-5.818l0,0C114.182,151.273,116.509,153.6,116.509,157.091z"/>
<path style="fill:#6F707E;" d="M273.6,267.636h11.636c3.491,0,5.818,2.327,5.818,5.818l0,0c0,3.491-2.327,5.818-5.818,5.818H273.6
	c-3.491,0-5.818-2.327-5.818-5.818l0,0C267.782,269.964,270.109,267.636,273.6,267.636z"/>
<path style="fill:#494A52;" d="M273.6,290.909h69.818c3.491,0,5.818,2.327,5.818,5.818l0,0c0,3.491-2.327,5.818-5.818,5.818H273.6
	c-3.491,0-5.818-2.327-5.818-5.818l0,0C267.782,293.236,270.109,290.909,273.6,290.909z"/>
<path style="fill:#F48476;" d="M237.527,290.909c-15.127,0-27.927-12.8-27.927-27.927c0-3.491,3.491-6.982,6.982-6.982
	s6.982,3.491,6.982,6.982c0,8.145,5.818,13.964,13.964,13.964c3.491,0,6.982,3.491,6.982,6.982
	C244.509,287.418,241.018,290.909,237.527,290.909z"/>
<path style="fill:#B0C4D9;" d="M209.6,407.273v46.545c13.964-4.655,25.6-13.964,34.909-24.436V512c3.491,0,8.145,0,11.636,0V407.273
	H209.6z"/>
<path style="fill:#70B7E5;" d="M209.6,453.818L209.6,453.818c6.982-22.109,24.436-39.564,46.545-46.545l0,0l-22.109-12.8
	c-23.273-13.964-44.218-33.745-59.345-57.018l0,0l-10.473,3.491c-16.291,5.818-29.091,16.291-37.236,31.418l0,0L209.6,453.818z"/>
<path style="fill:#4C9CD6;" d="M195.636,416.582l-34.909-34.909c-6.982-6.982-15.127-10.473-24.436-10.473
	c-3.491,0-6.982,0-6.982,2.327l81.455,81.455c6.982-22.109,24.436-39.564,46.545-46.545l0,0
	c-10.473-6.982-24.436-4.655-33.745,3.491c-1.164,1.164-2.327,2.327-3.491,3.491C213.091,422.4,201.455,422.4,195.636,416.582z"/>
<g>
</g>
<g>
</g>
<g>
</g>
<g>
</g>
<g>
</g>
<g>
</g>
<g>
</g>
<g>
</g>
<g>
</g>
<g>
</g>
<g>
</g>
<g>
</g>
<g>
</g>
<g>
</g>
<g>
</g>
</svg>
